<?xml version="1.0" encoding="UTF-8"?>
<svg width="30px" height="30px" viewBox="0 0 30 30" version="1.1" xmlns="http://www.w3.org/2000/svg" xmlns:xlink="http://www.w3.org/1999/xlink">
    <title>icon/administrator</title>
    <g id="icon/administrator" stroke="none" stroke-width="1" fill="none" fill-rule="evenodd">
        <g id="Group" transform="translate(6.000000, 4.000000)" fill="#A2A6AD" fill-rule="nonzero" stroke="#A2A6AD" stroke-width="0.4">
            <path d="M8.82943144,10.573677 C3.11626992,10.573677 0,12.9628172 0,17.4294708 L0,22 L17.2433602,22 L17.7627385,22 L17.7627385,17.4294708 C17.6588629,13.0666929 14.542593,10.573677 8.82943144,10.573677 Z M16.7239819,21.065119 L14.4387173,21.065119 L14.4387173,16.5984655 L13.5038363,16.5984655 L13.5038363,21.065119 L4.15502656,21.065119 L4.15502656,16.5984655 L3.22014558,16.5984655 L3.22014558,21.065119 L0.934880976,21.065119 L0.934880976,17.4294708 C0.934880976,12.5473146 5.1937832,11.5085579 8.82943144,11.5085579 C12.4650797,11.5085579 16.7239819,12.5473146 16.7239819,17.4294708 L16.7239819,21.065119 Z" id="Shape"></path>
            <path d="M8.60869565,9.56521739 C11.3719807,9.56521739 13.3913043,7.57998359 13.3913043,4.7826087 C13.3913043,1.9852338 11.3719807,0 8.60869565,0 C5.73913043,0 3.82608696,1.9852338 3.82608696,4.7826087 C3.82608696,7.57998359 5.73913043,9.56521739 8.60869565,9.56521739 Z M8.60869565,0.956521739 C10.8405797,0.956521739 12.4347826,2.52173913 12.4347826,4.7826087 C12.4347826,7.04347826 10.8405797,8.60869565 8.60869565,8.60869565 C6.37681159,8.60869565 4.7826087,7.04347826 4.7826087,4.7826087 C4.7826087,2.52173913 6.37681159,0.956521739 8.60869565,0.956521739 Z" id="Shape"></path>
        </g>
    </g>
</svg>