<?xml version="1.0" encoding="UTF-8"?>
<svg width="20px" height="20px" viewBox="0 0 20 20" version="1.1" xmlns="http://www.w3.org/2000/svg" xmlns:xlink="http://www.w3.org/1999/xlink">
    <title>icon/detail-s-2</title>
    <g id="icon/detail-s-2" stroke="none" stroke-width="1" fill="none" fill-rule="evenodd">
        <path d="M17,3 C17.5522847,3 18,3.44771525 18,4 L18,17 C18,17.5522847 17.5522847,18 17,18 L4,18 C3.44771525,18 3,17.5522847 3,17 L3,4 C3,3.44771525 3.44771525,3 4,3 L17,3 Z M15.1156292,4.36363636 L5.88437085,4.36363636 C5.19639921,4.36363636 5.02813666,4.39317545 4.85844687,4.47567644 C4.75318292,4.52685443 4.67953987,4.59380265 4.62324409,4.68949716 C4.5407431,4.82973665 4.50638929,4.96890384 4.50082497,5.46294185 L4.5,15.3778447 C4.5,16.0032734 4.532493,16.1562394 4.62324409,16.3105028 C4.67953987,16.4061973 4.75318292,16.4731456 4.85844687,16.5243236 C5.02813666,16.6068245 5.19639921,16.6363636 5.88437085,16.6363636 L15.1156292,16.6363636 C15.8036008,16.6363636 15.9718633,16.6068245 16.1415531,16.5243236 C16.2468171,16.4731456 16.3204601,16.4061973 16.3767559,16.3105028 C16.467507,16.1562394 16.5,16.0032734 16.5,15.3778447 L16.5,5.62215532 C16.5,4.99672655 16.467507,4.8437606 16.3767559,4.68949716 C16.3204601,4.59380265 16.2468171,4.52685443 16.1415531,4.47567644 C15.9718633,4.39317545 15.8036008,4.36363636 15.1156292,4.36363636 Z M14.0385431,8.45454545 C14.3728626,8.45454545 14.4940949,8.48619055 14.6163171,8.54561342 C14.7385394,8.60503629 14.8344601,8.69223694 14.8998252,8.80334806 C14.9651904,8.91445917 15,9.02467038 15,9.32859723 L15,14.3986755 C15,14.7026023 14.9651904,14.8128136 14.8998252,14.9239247 C14.8344601,15.0350358 14.7385394,15.1222364 14.6163171,15.1816593 C14.4940949,15.2410822 14.3728626,15.2727273 14.0385431,15.2727273 L6.96145695,15.2727273 C6.62713742,15.2727273 6.50590508,15.2410822 6.38368286,15.1816593 C6.26146064,15.1222364 6.16553992,15.0350358 6.10017476,14.9239247 C6.0348096,14.8128136 6,14.7026023 6,14.3986755 L6,9.32859723 C6,9.02467038 6.0348096,8.91445917 6.10017476,8.80334806 C6.16553992,8.69223694 6.26146064,8.60503629 6.38368286,8.54561342 C6.50590508,8.48619055 6.62713742,8.45454545 6.96145695,8.45454545 L14.0385431,8.45454545 Z M11.25,5.72727273 C11.6642136,5.72727273 12,6.03253313 12,6.40909091 C12,6.78564869 11.6642136,7.09090909 11.25,7.09090909 L6.75,7.09090909 C6.33578644,7.09090909 6,6.78564869 6,6.40909091 C6,6.03253313 6.33578644,5.72727273 6.75,5.72727273 L11.25,5.72727273 Z" id="Icon" fill="#878D95" fill-rule="nonzero"></path>
    </g>
</svg>