<?xml version="1.0" encoding="UTF-8"?>
<svg width="30px" height="30px" viewBox="0 0 30 30" version="1.1" xmlns="http://www.w3.org/2000/svg" xmlns:xlink="http://www.w3.org/1999/xlink">
    <title>icon/home</title>
    <g id="icon/home" stroke="none" stroke-width="1" fill="none" fill-rule="evenodd">
        <g id="Group" transform="translate(5.000000, 6.000000)" fill="#A2A6AD" stroke="#A2A6AD" stroke-width="0.4">
            <path d="M20.8647216,9.68344751 L10.6403587,0.119027435 C10.4692493,-0.041173012 10.2029938,-0.0396616871 10.033419,0.12356141 L0.130557714,9.68798149 C-0.0413190049,9.85347157 -0.0436209252,10.1262657 0.12441926,10.2955341 C0.292459445,10.4648025 0.569457193,10.4670695 0.741333912,10.3015794 L10.3441783,1.0280894 L20.263153,10.3061134 C20.3444876,10.3824353 20.4511432,10.4247524 20.5639373,10.4247524 C20.6828698,10.4247524 20.7979659,10.3756343 20.8800677,10.2910001 C21.045806,10.1187091 21.0389002,9.84667061 20.8647216,9.68344751" id="Fill-61"></path>
            <path d="M17.3612755,17.2764197 L13.1541324,17.2764197 L13.1541324,12.162096 C13.1541324,11.924818 12.9584692,11.7321241 12.7183022,11.7321241 L8.12213457,11.7321241 C7.88120024,11.7321241 7.68553701,11.924818 7.68553701,12.162096 L7.68553701,17.2764197 L3.47685932,17.2764197 L3.47685932,9.14246874 L2.6036642,9.14246874 L2.6036642,17.7063917 C2.6036642,17.942914 2.79932743,18.1363636 3.04026176,18.1363636 L8.12213457,18.1363636 C8.36230159,18.1363636 8.55873213,17.942914 8.55873213,17.7063917 L8.55873213,12.592068 L12.2817046,12.592068 L12.2817046,17.7063917 C12.2817046,17.942914 12.4773679,18.1363636 12.7183022,18.1363636 L17.7971058,18.1363636 C18.0380401,18.1363636 18.2337033,17.942914 18.2337033,17.7063917 L18.2337033,9.14246874 L17.3612755,9.14246874 L17.3612755,17.2764197 Z" id="Fill-63"></path>
            <path d="M4.35703693,1.36526601 L5.89855625,1.36526601 L5.89855625,3.23855331 L6.7525687,2.3907 L6.7525687,0.945117664 C6.7525687,0.713884943 6.560742,0.524969322 6.32517882,0.524969322 L3.93041436,0.524969322 C3.69485117,0.524969322 3.50379179,0.713884943 3.50379179,0.945117664 L3.50379179,5.61737881 L4.35703693,4.77028116 L4.35703693,1.36526601 Z" id="Fill-65"></path>
        </g>
    </g>
</svg>