<?xml version="1.0" encoding="UTF-8"?>
<svg width="30px" height="30px" viewBox="0 0 30 30" version="1.1" xmlns="http://www.w3.org/2000/svg" xmlns:xlink="http://www.w3.org/1999/xlink">
    <title>icon/log</title>
    <g id="icon/log" stroke="none" stroke-width="1" fill="none" fill-rule="evenodd">
        <g id="Group" transform="translate(3.000000, 6.000000)" fill-rule="nonzero">
            <path d="M24.2641193,11.5969108 L22.4906621,11.5969108 L22.4906621,0.788905497 C22.4906621,0.394452749 22.0876036,0 21.6845452,0 L3.46630276,0 C2.9826326,0 2.66018584,0.394452749 2.66018584,0.788905497 L2.66018584,11.5969108 L0.80611692,11.5969108 C0.322446768,11.5969108 0,11.912473 0,12.3858163 L0.644893536,16.8036871 C0.644893536,17.1981398 1.047952,17.5925926 1.45101046,17.5925926 L23.5386141,17.5925926 C24.0222842,17.5925926 24.344731,17.1981398 24.344731,16.8036871 L24.9896245,12.3858163 C25.0702362,11.9913636 24.6671778,11.5969108 24.2641193,11.5969108 Z" id="Path"></path>
            <path d="M2.57957414,16.3303438 C2.17651568,16.3303438 1.85406892,16.0147816 1.77345722,15.6992194 L1.53162215,13.7269557 C1.53162215,13.5691746 1.53162215,13.3325029 1.69284553,13.1747218 C1.85406892,13.0169407 2.0152923,12.9380502 2.25712738,12.9380502 L23.0549439,12.9380502 C23.296779,12.9380502 23.4580024,13.0169407 23.6192258,13.1747218 C23.7804491,13.3325029 23.7804491,13.5691746 23.7804491,13.7269557 L23.5386141,15.6992194 C23.4580024,16.0936721 23.1355556,16.3303438 22.7324971,16.3303438 L2.57957414,16.3303438 Z M22.6518855,15.3047667 L22.8131088,13.8058462 L2.66018584,13.8058462 L2.82140922,15.3047667 L22.6518855,15.3047667 Z M20.4753698,12.622488 C20.2335347,12.622488 19.9916996,12.3858163 19.9916996,12.1491447 L19.9916996,2.44560704 L5.32037167,2.44560704 L5.32037167,12.1491447 C5.32037167,12.3858163 5.0785366,12.622488 4.83670152,12.622488 C4.59486645,12.622488 4.35303137,12.3858163 4.35303137,12.1491447 L4.35303137,1.89337319 C4.35303137,1.65670154 4.59486645,1.4200299 4.83670152,1.4200299 L20.4753698,1.4200299 C20.7172048,1.4200299 20.9590399,1.65670154 20.9590399,1.89337319 L20.9590399,12.1491447 C21.0396516,12.3858163 20.7978165,12.622488 20.4753698,12.622488 Z" id="Shape" stroke="#A2A6AD" stroke-width="0.2" fill="#A2A6AD"></path>
            <path d="M13.4621526,8.28350772 C13.3815409,8.28350772 13.3815409,8.28350772 13.3009292,8.28350772 C13.2203175,8.28350772 13.0590941,8.20461717 13.0590941,8.04683607 C12.9784824,7.96794552 12.9784824,7.81016442 13.0590941,7.73127387 L14.2682695,4.26008969 C14.3488812,4.10230859 14.5101046,3.94452749 14.6713279,3.94452749 C14.7519396,3.94452749 14.7519396,3.94452749 14.8325513,3.94452749 C14.913163,3.94452749 15.0743864,4.02341804 15.0743864,4.18119914 C15.1549981,4.26008969 15.1549981,4.41787079 15.0743864,4.49676134 L13.865211,7.96794552 C13.7845993,8.12572662 13.623376,8.28350772 13.4621526,8.28350772 Z" id="Path" stroke="#A2A6AD" stroke-width="0.1" fill="#A2A6AD"></path>
            <path d="M14.5907163,11.1235675 C14.5101046,11.1235675 14.5101046,11.1235675 14.4294929,11.1235675 C14.3488812,11.044677 14.1876578,10.9657864 14.1876578,10.8868959 C14.1070461,10.8080053 14.1070461,10.6502242 14.1876578,10.5713337 L16.6060086,4.18119914 C16.6866202,4.02341804 16.8478436,3.86563694 17.009067,3.86563694 C17.0896787,3.86563694 17.0896787,3.86563694 17.1702904,3.86563694 C17.2509021,3.94452749 17.4121255,4.02341804 17.4121255,4.10230859 C17.4121255,4.18119914 17.4927372,4.33898024 17.4121255,4.41787079 L14.9937747,10.8080053 C14.9937747,11.044677 14.8325513,11.1235675 14.5907163,11.1235675 Z" id="Path" stroke="#A2A6AD" stroke-width="0.1" fill="#A2A6AD"></path>
        </g>
    </g>
</svg>