<?xml version="1.0" encoding="UTF-8"?>
<svg width="30px" height="30px" viewBox="0 0 30 30" version="1.1" xmlns="http://www.w3.org/2000/svg" xmlns:xlink="http://www.w3.org/1999/xlink">
    <title>icon/phone</title>
    <g id="icon/phone" stroke="none" stroke-width="1" fill="none" fill-rule="evenodd">
        <path d="M19.6555556,18.2388889 C19.3722222,18.1444444 18.9944444,18.2388889 18.7111111,18.4277778 L16.6333333,20.5055556 C13.9888889,19.1833333 11.8166667,16.9166667 10.4,14.2722222 L12.4777778,12.1944444 C12.7611111,11.9111111 12.8555556,11.5333333 12.6666667,11.25 C12.3833333,10.2111111 12.1944444,9.07777778 12.1944444,7.94444444 C12.1944444,7.37777778 11.8166667,7 11.25,7 L7.94444444,7 C7.37777778,7 7,7.37777778 7,7.94444444 C7,16.8222222 14.1777778,24 23.0555556,24 C23.6222222,24 24,23.6222222 24,23.0555556 L24,19.75 C24,19.1833333 23.6222222,18.8055556 23.0555556,18.8055556 C21.9222222,18.8055556 20.7888889,18.6166667 19.6555556,18.2388889 Z" id="Path" fill="#ffffff"></path>
    </g>
</svg>