<?xml version="1.0" encoding="UTF-8"?>
<svg width="30px" height="30px" viewBox="0 0 30 30" version="1.1" xmlns="http://www.w3.org/2000/svg" xmlns:xlink="http://www.w3.org/1999/xlink">
    <title>icon/setting</title>
    <g id="icon/setting" stroke="none" stroke-width="1" fill="none" fill-rule="evenodd">
        <g id="Group" transform="translate(3.000000, 7.000000)" fill-rule="nonzero">
            <path d="M24.5169082,8.30034287 C24.6376812,6.24942742 24.2753623,6.24942742 24.1545894,6.24942742 C24.0338164,6.24942742 21.7391304,5.70251664 19.4444444,5.15560585 C17.9951691,2.69450731 15.0966184,0.233408778 13.2850242,0.0966810814 C13.1642512,0.0966810814 12.9227053,0.0966810814 12.8019324,0.0966810814 C11.2318841,-0.0400466151 8.81642512,-0.176774312 7.24637681,0.780319564 C5.79710145,1.73741344 3.50241546,3.51487349 2.29468599,5.29233355 C2.29468599,5.29233355 2.17391304,5.42906124 1.20772947,5.42906124 C0.845410628,5.42906124 0.483091787,5.70251664 0.483091787,6.38615512 C0.483091787,6.52288282 0.483091787,6.65961051 0.483091787,6.79633821 C0.483091787,7.343249 0.483091787,7.89015978 0.362318841,8.43707057 C0.241545894,8.57379826 0,8.71052596 0,8.98398135 C0,9.53089214 0.120772947,10.6247137 0.241545894,11.4450799 L0.241545894,11.7185353 L2.53623188,11.7185353 C2.53623188,11.7185353 2.53623188,11.7185353 2.53623188,11.7185353 C2.53623188,13.4959953 3.8647343,15 5.43478261,15 C7.00483092,15 8.33333333,13.4959953 8.33333333,11.7185353 C8.33333333,11.7185353 8.33333333,11.7185353 8.33333333,11.7185353 L17.1497585,11.7185353 C17.1497585,11.7185353 17.1497585,11.7185353 17.1497585,11.7185353 C17.1497585,13.4959953 18.4782609,15 20.0483092,15 C21.6183575,15 22.9468599,13.4959953 22.9468599,11.7185353 C22.9468599,11.7185353 22.9468599,11.7185353 22.9468599,11.7185353 L25,11.7185353 L25,8.98398135 L24.5169082,8.30034287 Z" id="Transport_81_-path" stroke="#A2A6AD"></path>
            <path d="M21.8599034,11.5818076 C21.8599034,12.6756292 21.1352657,13.4959953 20.1690821,13.4959953 C19.2028986,13.4959953 18.4782609,12.6756292 18.4782609,11.5818076 C18.4782609,10.487986 19.2028986,9.66761984 20.1690821,9.66761984 C21.1352657,9.66761984 21.8599034,10.487986 21.8599034,11.5818076 Z" id="Transport_81_-path" fill="#A2A6AD"></path>
            <path d="M17.2705314,4.74542276 L17.0289855,5.01887816 L10.1449275,5.01887816 C10.1449275,5.01887816 10.0241546,4.88215046 10.0241546,4.88215046 L10.0241546,1.32723035 C10.1449275,1.32723035 10.2657005,1.19050265 10.3864734,1.19050265 C11.47343,1.05377496 12.0772947,1.19050265 12.8019324,1.32723035 C14.0096618,1.46395805 15.942029,2.69450731 17.2705314,4.74542276 Z" id="Transport_81_-path" fill="#A2A6AD"></path>
            <path d="M8.81642512,1.19050265 C8.93719807,1.19050265 8.93719807,1.19050265 9.05797101,1.19050265 L9.05797101,4.74542276 C9.05797101,4.74542276 8.93719807,4.88215046 8.93719807,4.88215046 L6.03864734,4.88215046 L5.31400966,4.06178428 C5.43478261,3.65160119 6.76328502,2.14759653 7.60869565,1.60068574 C7.97101449,1.46395805 8.33333333,1.32723035 8.81642512,1.19050265 Z" id="Transport_81_-path" fill="#A2A6AD"></path>
            <path d="M7.12560386,11.5818076 C7.12560386,12.6756292 6.40096618,13.4959953 5.43478261,13.4959953 C4.46859903,13.4959953 3.74396135,12.6756292 3.74396135,11.5818076 C3.74396135,10.487986 4.46859903,9.66761984 5.43478261,9.66761984 C6.40096618,9.66761984 7.12560386,10.487986 7.12560386,11.5818076 Z" id="Transport_81_-path" fill="#A2A6AD"></path>
        </g>
    </g>
</svg>