<?xml version="1.0" encoding="UTF-8"?>
<svg width="30px" height="30px" viewBox="0 0 30 30" version="1.1" xmlns="http://www.w3.org/2000/svg" xmlns:xlink="http://www.w3.org/1999/xlink">
    <title>icon/tripHistory-focus</title>
    <g id="icon/tripHistory-focus" stroke="none" stroke-width="1" fill="none" fill-rule="evenodd">
        <g id="group" transform="translate(5.000000, 5.000000)" stroke="#76DDFB" stroke-width="1.4">
            <path d="M10.5,0.7 C13.2060218,0.7 15.655865,1.79712697 17.4292816,3.57054355 C19.2029305,5.34419252 20.3,7.7943218 20.3,10.5 C20.3,13.2067218 19.20327,15.656593 17.4300188,17.4298442 C15.6565353,19.2033277 13.2063782,20.3 10.5,20.3 C7.79362181,20.3 5.34346471,19.2033277 3.56998118,17.4298442 C1.79672996,15.656593 0.7,13.2067218 0.7,10.5 C0.7,7.7943218 1.79706946,5.34419252 3.57071843,3.57054355 C5.34413501,1.79712697 7.79397824,0.7 10.5,0.7 Z" id="oval"></path>
            <polyline id="shape" stroke-linecap="round" stroke-linejoin="round" points="10.1295084 5.32318182 10.1295084 10.6156346 14.3295084 14.2481818"></polyline>
        </g>
    </g>
</svg>