<?xml version="1.0" encoding="UTF-8"?>
<svg width="20px" height="20px" viewBox="0 0 20 20" version="1.1" xmlns="http://www.w3.org/2000/svg" xmlns:xlink="http://www.w3.org/1999/xlink">
    <title>icon/video-s</title>
    <g id="icon/video-s" stroke="none" stroke-width="1" fill="none" fill-rule="evenodd">
        <g id="Group" transform="translate(1.000000, 3.000000)" fill="#DADEE4">
            <path d="M18,9.19881566 L14.8576855,9.19881566 C14.3755763,11.3243532 13.0574969,13.12089 11.2759325,14.2147578 C14.1801394,13.7791318 16.7125681,11.9086299 18,9.19881566" id="Path"></path>
            <path d="M7.27949497,0 C11.294321,0 14.5523889,3.31906621 14.5523889,7.40876287 C14.5523889,11.5049435 11.294321,14.8235294 7.27949497,14.8235294 C3.2585394,14.8235294 0,11.5049435 0,7.40876287 C0,3.31906621 3.2585394,0 7.27949497,0 Z M4.87765927,8.58204334 C3.84267034,8.58204334 3,9.45699531 3,10.5323972 C3,11.6075782 3.84267034,12.4829721 4.87765927,12.4829721 C5.91286095,12.4829721 6.75,11.6075782 6.75,10.5323972 C6.75,9.45699531 5.91286095,8.58204334 4.87765927,8.58204334 Z M10.1276596,8.58204334 C9.08702128,8.58204334 8.25,9.45699531 8.25,10.5323972 C8.25,11.6075782 9.08702128,12.4829721 10.1276596,12.4829721 C11.162766,12.4829721 12,11.6075782 12,10.5323972 C12,9.45699531 11.162766,8.58204334 10.1276596,8.58204334 Z M5.9673093,7.40275921 C5.72330784,7.40275921 5.52787091,7.6016006 5.52787091,7.84366837 C5.52787091,8.0927004 5.72330784,8.28505783 5.9673093,8.28505783 C6.20541702,8.28505783 6.40061819,8.0927004 6.40061819,7.84366837 C6.40061819,7.6016006 6.20541702,7.40275921 5.9673093,7.40275921 Z M7.15061398,6.35294118 C6.7074039,6.35294118 6.35294118,6.71401411 6.35294118,7.15824649 C6.35294118,7.60274712 6.7074039,7.9635518 7.15061398,7.9635518 C7.5864504,7.9635518 7.94117647,7.60274712 7.94117647,7.15824649 C7.94117647,6.71401411 7.5864504,6.35294118 7.15061398,6.35294118 Z M3.37808511,3.90092879 C2.33723404,3.90092879 1.5,4.77153944 1.5,5.84840558 C1.5,6.92527173 2.33723404,7.80185759 3.37808511,7.80185759 C4.41319149,7.80185759 5.25,6.92527173 5.25,5.84840558 C5.25,4.77153944 4.41319149,3.90092879 3.37808511,3.90092879 Z M10.8776593,3.90092879 C9.84267034,3.90092879 9,4.77153944 9,5.84840558 C9,6.92527173 9.84267034,7.80185759 10.8776593,7.80185759 C11.9130737,7.80185759 12.75,6.92527173 12.75,5.84840558 C12.75,4.77153944 11.9130737,3.90092879 10.8776593,3.90092879 Z M7.12234073,0.780185759 C6.08692631,0.780185759 5.25,1.65111653 5.25,2.7336381 C5.25,3.81040511 6.08692631,4.68111455 7.12234073,4.68111455 C8.15732966,4.68111455 9,3.81040511 9,2.7336381 C9,1.65111653 8.15732966,0.780185759 7.12234073,0.780185759 Z" id="Combined-Shape"></path>
        </g>
    </g>
</svg>