<?xml version="1.0" encoding="UTF-8"?>
<svg width="30px" height="30px" viewBox="0 0 30 30" version="1.1" xmlns="http://www.w3.org/2000/svg" xmlns:xlink="http://www.w3.org/1999/xlink">
    <title>icon/video-focus</title>
    <g id="icon/video-focus" stroke="none" stroke-width="1" fill="none" fill-rule="evenodd">
        <g id="Group-Copy" transform="translate(5.000000, 7.000000)" fill="#181B30">
            <path d="M20,9.92888039 L16.5085394,9.92888039 C15.9728625,12.2231114 14.5083298,14.1622305 12.5288139,15.3429131 C15.7557104,14.8727137 18.5695201,12.8537593 20,9.92888039" id="Path"></path>
            <path d="M8.08832775,0 C12.5492456,0 16.169321,3.58248416 16.169321,7.99675993 C16.169321,12.4180342 12.5492456,16 8.08832775,16 C3.62059933,16 0,12.4180342 0,7.99675993 C0,3.58248416 3.62059933,0 8.08832775,0 Z M5.41962141,9.26315789 C4.26963371,9.26315789 3.33333333,10.2075505 3.33333333,11.3683018 C3.33333333,12.5288145 4.26963371,13.4736842 5.41962141,13.4736842 C6.5698455,13.4736842 7.5,12.5288145 7.5,11.3683018 C7.5,10.2075505 6.5698455,9.26315789 5.41962141,9.26315789 Z M11.2529551,9.26315789 C10.0966903,9.26315789 9.16666667,10.2075505 9.16666667,11.3683018 C9.16666667,12.5288145 10.0966903,13.4736842 11.2529551,13.4736842 C12.4030733,13.4736842 13.3333333,12.5288145 13.3333333,11.3683018 C13.3333333,10.2075505 12.4030733,9.26315789 11.2529551,9.26315789 Z M3.7534279,4.21052632 C2.59692671,4.21052632 1.66666667,5.15023305 1.66666667,6.31256476 C1.66666667,7.47489647 2.59692671,8.42105263 3.7534279,8.42105263 C4.9035461,8.42105263 5.83333333,7.47489647 5.83333333,6.31256476 C5.83333333,5.15023305 4.9035461,4.21052632 3.7534279,4.21052632 Z M12.0862881,4.21052632 C10.9363004,4.21052632 10,5.15023305 10,6.31256476 C10,7.47489647 10.9363004,8.42105263 12.0862881,8.42105263 C13.2367485,8.42105263 14.1666667,7.47489647 14.1666667,6.31256476 C14.1666667,5.15023305 13.2367485,4.21052632 12.0862881,4.21052632 Z M7.91371192,0.842105263 C6.76325145,0.842105263 5.83333333,1.78215752 5.83333333,2.95059351 C5.83333333,4.11281822 6.76325145,5.05263158 7.91371192,5.05263158 C9.06369963,5.05263158 10,4.11281822 10,2.95059351 C10,1.78215752 9.06369963,0.842105263 7.91371192,0.842105263 Z" id="Combined-Shape"></path>
        </g>
    </g>
</svg>