<?xml version="1.0" encoding="UTF-8"?>
<svg width="56px" height="39px" viewBox="0 0 56 39" version="1.1" xmlns="http://www.w3.org/2000/svg" xmlns:xlink="http://www.w3.org/1999/xlink">
    <title>Layout/no_data</title>
    <g id="Layout/no_data" stroke="none" stroke-width="1" fill="none" fill-rule="evenodd">
        <g id="Group" transform="translate(9.837838, 1.500000)">
            <g transform="translate(6.265946, 23.598000)" id="Path" stroke="#556066" stroke-linejoin="round" stroke-width="1.9044">
                <path d="M0.375956757,0.0621 L0.375956757,1.6767 C0.375956757,1.9872 0.626594595,2.2356 0.939891892,2.2356 L1.69180541,2.2356 C1.87978378,2.2356 2.13042162,2.3598 2.19308108,2.5461 L3.38361081,5.4027 C3.44627027,5.589 3.44627027,5.8374 3.25829189,5.9616 L2.69435676,6.5205 C2.50637838,6.7068 2.50637838,7.0794 2.69435676,7.2657 L4.9500973,9.5013 C5.13807568,9.6876 5.51403243,9.6876 5.70201081,9.5013 L6.26594595,8.9424 C6.39126486,8.8182 6.6419027,8.7561 6.82988108,8.8182 L9.71221622,9.9981 C9.90019459,10.0602 10.0255135,10.2465 10.0255135,10.4949 L10.0255135,11.2401 C10.0255135,11.5506 10.2761514,11.799 10.5894486,11.799 L13.7850811,11.799 C14.0983784,11.799 14.3490162,11.5506 14.3490162,11.2401 L14.3490162,10.4949 C14.3490162,10.3086 14.4743351,10.0602 14.6623135,9.9981 L17.5446486,8.8182 C17.732627,8.7561 17.9832649,8.7561 18.1085838,8.9424 L18.6725189,9.5013 C18.8604973,9.6876 19.2364541,9.6876 19.4244324,9.5013 L21.680173,7.2657 C21.8681514,7.0794 21.8681514,6.7068 21.680173,6.5205 L21.1162378,5.9616 C20.9909189,5.8374 20.9282595,5.589 20.9909189,5.4027 L22.1814486,2.5461 C22.2441081,2.3598 22.4320865,2.2356 22.6827243,2.2356 L23.4346378,2.2356 C23.7479351,2.2356 23.998573,1.9872 23.998573,1.6767 L23.998573,0.0621"></path>
                <path d="M17.5446486,0.0621 C17.5446486,2.9808 15.1635892,5.4027 12.1559351,5.4027 C9.21094054,5.4027 6.76722162,3.0429 6.76722162,0.0621"></path>
            </g>
            <path d="M10.7147676,2.7945 L1.56648649,2.7945 C1.00255135,2.7945 0.501275676,3.2913 0.501275676,3.8502 L0.501275676,29.4354 C0.501275676,29.9943 1.00255135,30.4911 1.56648649,30.4911 L5.45137297,30.4911" id="Path" stroke="#556066" stroke-width="1.9044" stroke-linecap="square" stroke-linejoin="round"></path>
            <path d="M31.4550486,30.5532 L35.3399351,30.5532 C35.9038703,30.5532 36.4051459,30.0564 36.4051459,29.4975 L36.4051459,3.9123 C36.4051459,3.3534 35.9038703,2.8566 35.3399351,2.8566 L26.316973,2.8566" id="Path" stroke="#556066" stroke-width="1.9044" stroke-linecap="square" stroke-linejoin="round"></path>
            <line x1="27.3821838" y1="7.5141" x2="36.4051459" y2="7.5141" id="Path" stroke="#556066" stroke-width="1.9044" stroke-linejoin="round"></line>
            <line x1="0.563935135" y1="7.5141" x2="9.39891892" y2="7.5141" id="Path" stroke="#556066" stroke-width="1.9044" stroke-linejoin="round"></line>
            <g transform="translate(4.386162, 4.347000)" id="Path" stroke="#556066" stroke-linejoin="round" stroke-width="1.656">
                <line x1="0.0626594595" y1="0.7452" x2="1.19052973" y2="0.7452"></line>
                <line x1="2.75701622" y1="0.7452" x2="3.88488649" y2="0.7452"></line>
            </g>
            <path d="M15.5395459,6.3963 L11.9052973,6.3963 C11.9052973,4.5954 12.5318919,3.1671 13.7224216,1.9872 C14.9756108,0.8073 16.6047568,0.2484 18.6725189,0.2484 C19.9883676,0.2484 21.1162378,0.4968 21.9934703,0.9936 C22.9333622,1.4904 23.6226162,2.1735 24.1865514,3.0429 C24.7504865,3.9744 25.0011243,4.9059 25.0011243,5.8995 C25.0011243,6.4584 24.9384649,6.9552 24.7504865,7.5141 C24.5625081,8.0109 24.3118703,8.5698 23.9359135,9.1287 C23.6852757,9.4392 23.184,9.9981 22.3067676,10.7433 C21.4921946,11.4885 20.9909189,11.9853 20.8029405,12.2958 C20.6149622,12.6063 20.4269838,12.9789 20.3016649,13.4757 C20.1763459,13.9725 20.051027,14.6556 20.051027,15.525 L16.2914595,15.525 L16.2914595,14.904 C16.2914595,13.662 16.5420973,12.5442 16.9807135,11.5506 C17.4193297,10.557 18.1712432,9.5634 19.1737946,8.694 C20.1763459,7.8246 20.7402811,7.2657 20.9909189,6.8931 C21.1788973,6.5826 21.3042162,6.21 21.3042162,5.7753 C21.3042162,5.1543 21.0535784,4.6575 20.5523027,4.2849 C20.051027,3.8502 19.361773,3.6639 18.5472,3.6639 C17.6699676,3.6639 16.9807135,3.9123 16.4167784,4.4091 C15.8528432,4.968 15.5395459,5.589 15.5395459,6.3963 Z" id="Path" fill="#556066" fill-rule="nonzero"></path>
            <rect id="Rectangle" fill="#556066" fill-rule="nonzero" x="16.2288" y="17.2638" width="3.82222703" height="4.0365"></rect>
        </g>
    </g>
</svg>