<?xml version="1.0" encoding="UTF-8"?>
<svg width="30px" height="30px" viewBox="0 0 30 30" version="1.1" xmlns="http://www.w3.org/2000/svg" xmlns:xlink="http://www.w3.org/1999/xlink">
    <title>Btn/close_white</title>
    <g id="Btn/close_white" stroke="none" stroke-width="1" fill="none" fill-rule="evenodd">
        <path d="M15,23 C10.6,23 7,19.4 7,15 C7,10.6 10.6,7 15,7 C19.4,7 23,10.6 23,15 C23,19.4 19.4,23 15,23 L15,23 Z M19,12.12 L17.88,11 L15,13.88 L12.12,11 L11,12.12 L13.88,15 L11,17.88 L12.12,19 L15,16.12 L17.88,19 L19,17.88 L16.12,15 L19,12.12 L19,12.12 Z" id="Shape" fill="#8C9FAF" transform="translate(15.000000, 15.000000) scale(1, -1) translate(-15.000000, -15.000000) "></path>
    </g>
</svg>