<?xml version="1.0" encoding="UTF-8"?>
<svg width="40px" height="40px" viewBox="0 0 40 40" version="1.1" xmlns="http://www.w3.org/2000/svg" xmlns:xlink="http://www.w3.org/1999/xlink">
    <title>Btn/Mic_On_small</title>
    <g id="Btn/Mic_On_small" stroke="none" stroke-width="1" fill="none" fill-rule="evenodd">
        <path d="M26.6014224,17.918533 C27.0432963,17.918533 27.4015058,18.2767425 27.4015058,18.7186163 L27.398,18.768 L27.3986255,20.750828 L27.3887044,20.750828 C27.3912161,24.426319 24.6440655,27.5227071 20.9944383,27.9579789 L20.9944383,30.3902323 L24.0091523,30.3902323 L24.0090011,30.4004676 C24.019667,30.4000461 24.0303865,30.3998333 24.0411557,30.3998333 C24.4830295,30.3998333 24.841239,30.7580428 24.841239,31.1999166 C24.841239,31.6417905 24.4830295,32 24.0411557,32 L24.009,31.998 L16.3891585,32 C16.3800282,31.9998217 16.3702127,32 16.3603555,32 C15.9184816,32 15.5602721,31.6417905 15.5602721,31.1999166 C15.5602721,30.7580428 15.9184816,30.3998333 16.3603555,30.3998333 L16.389,30.401 L16.3891585,30.3902323 L19.4102732,30.3902323 L19.4102732,27.9579789 C15.7528679,27.5329329 12.9955528,24.4328462 13,20.750828 C13,20.7156244 13.005446,20.683621 13.006086,20.6516177 L13.0062392,18.8189771 C13.002125,18.7861018 13.0000054,18.7526066 13.0000054,18.7186163 C13.0000054,18.2767425 13.3582149,17.918533 13.8000887,17.918533 C14.2419626,17.918533 14.6001721,18.2767425 14.6001721,18.7186163 L14.596,18.775 L14.5963317,21.000454 C14.5921713,21.0356577 14.5960117,21.0644607 14.5963317,21.0932637 L14.5963317,21.394095 L14.6113733,21.394095 C14.8491888,24.2395451 17.1778004,26.4573358 20.0314579,26.5562329 L20.3546916,26.5562329 C23.2092626,26.458966 25.5391532,24.2404811 25.7760564,21.394095 L25.7952584,21.394095 L25.7952584,18.7282173 C25.8013603,18.7254094 25.8013391,18.7220153 25.8013391,18.7186163 C25.8013391,18.2767425 26.1595486,17.918533 26.6014224,17.918533 Z M24.514805,19.4034877 C24.514805,19.886738 24.514805,20.395591 24.4892024,20.8788414 C24.4695489,21.3146288 24.4030252,21.7470329 24.2907817,22.1685757 C24.0403209,23.0533683 23.5062433,23.831435 22.7706233,24.3832065 C21.2617898,25.573674 19.1333207,25.573674 17.6244872,24.3832065 C16.8869537,23.8331436 16.3522154,23.0544422 16.1036887,22.1685757 C15.9909296,21.7471518 15.9245028,21.3146797 15.9055881,20.8788414 C15.8777452,20.395591 15.8802437,19.886738 15.8802437,19.4034877 L15.8802437,15.3582662 C15.8802437,14.8782162 15.8828657,12.7563951 15.8802437,12.3979578 C15.8929541,11.9595489 15.9683961,11.5252182 16.1043288,11.1082234 C16.6166763,9.27088707 18.2904412,8 20.1978753,8 C22.1053094,8 23.7790743,9.27088707 24.2914218,11.1082234 C24.4117387,11.5289473 24.4868379,11.9613042 24.5154451,12.3979578 C24.5442481,12.8812082 24.5154451,14.8782162 24.5154451,15.3582662 L24.5154451,19.4034877 L24.514805,19.4034877 Z M22.9146383,20.1587663 C22.9146383,20.4659984 22.9082377,20.568409 22.8890357,20.875641 C22.8779916,21.1546288 22.8361329,21.43154 22.7642226,21.7013271 C22.6109508,22.2677737 22.2772745,22.7688499 21.8137236,23.1286758 C20.863919,23.8668947 19.5343918,23.8668947 18.5845872,23.1286758 C18.1192388,22.7699065 17.7842528,22.2685516 17.6308878,21.7013271 C17.560528,21.4312195 17.5186948,21.1544767 17.5060748,20.875641 C17.4900732,20.568409 17.4868728,20.4659984 17.4868728,20.1587663 C17.4868728,15.9023229 17.4676708,12.7467941 17.4932735,12.4075588 C17.5117862,12.1284634 17.5578824,11.8518861 17.6308878,11.5818728 C17.7842528,11.0146482 18.1192388,10.5132933 18.5845872,10.1545241 C19.5343918,9.41630513 20.863919,9.41630513 21.8137236,10.1545241 C22.2772745,10.5143499 22.6109508,11.0154262 22.7642226,11.5818728 C22.845522,11.8506427 22.8970366,12.1275336 22.9178387,12.4075588 C22.940241,12.7723968 22.9146383,15.8895216 22.9146383,20.1587663 Z" id="Dictation-Copy" fill="#FFFFFF"></path>
    </g>
</svg>