<?xml version="1.0" encoding="UTF-8"?>
<svg width="40px" height="40px" viewBox="0 0 40 40" version="1.1" xmlns="http://www.w3.org/2000/svg" xmlns:xlink="http://www.w3.org/1999/xlink">
    <title>Btn/Notify_on</title>
    <g id="Btn/Notify_on" stroke="none" stroke-width="1" fill="none" fill-rule="evenodd">
        <path d="M20.5,30 C20.6479545,30 20.7835,29.9897736 20.9219091,29.9600242 C21.5986818,29.8187143 22.1628182,29.3678241 22.4377273,28.7486636 C22.5427273,28.5023009 22.5961818,28.2364152 22.5961818,27.949147 L18.3837727,27.949147 C18.3942727,29.0777669 19.3316364,30 20.5,30 Z M26.8181364,18.7175196 C26.8181364,15.5696556 25.0904091,12.9340399 22.0797727,12.2367871 L22.0797727,11.5386046 C22.0797727,10.6879561 21.3743636,10 20.5,10 C19.6256364,10 18.9202273,10.6879561 18.9202273,11.5386046 L18.9202273,12.2367871 C15.8981364,12.9340399 14.1818636,15.5594292 14.1818636,18.7175196 L14.1818636,23.8465114 L12.0751818,25.8973644 L12.0751818,26.9227909 L28.9248182,26.9227909 L28.9248182,25.8973644 L26.8181364,23.8465114 L26.8181364,18.7175196 Z M28.8942727,18.2052712 L31,18.2052712 C30.8453636,15.0285874 29.2579545,12.0815321 26.6596818,10.1543253 L25.1648636,11.6204156 C27.3660455,13.1543718 28.7377273,15.5752336 28.8942727,18.2052712 Z M15.8456364,11.6204156 L14.3403182,10.1543253 C11.8117273,12.0313299 10.1479545,14.9235346 10,18.2052712 L12.1057273,18.2052712 C12.2584545,15.5705852 13.6339545,13.1469344 15.8456364,11.6204156 Z" id="Stroke-31" stroke="#485465"></path>
    </g>
</svg>