<?xml version="1.0" encoding="UTF-8"?>
<svg width="40px" height="40px" viewBox="0 0 40 40" version="1.1" xmlns="http://www.w3.org/2000/svg" xmlns:xlink="http://www.w3.org/1999/xlink">
    <title>Btn/Sound_on</title>
    <g id="Btn/Sound_on" stroke="none" stroke-width="1" fill="none" fill-rule="evenodd">
        <g id="Group" transform="translate(9.000000, 10.000000)" fill="#FFFFFF">
            <path d="M11.0399997,0.153337745 C11.2723132,-0.0208974297 11.5831296,-0.0489236149 11.8428634,0.0809435772 C12.102598,0.210810769 12.2666667,0.476279217 12.2666667,0.766671054 L12.2666667,19.1666711 C12.2666667,19.4570635 12.102598,19.722531 11.8428634,19.8523979 C11.5831296,19.9822663 11.2723132,19.9542398 11.0399997,19.7800038 L5.11111209,15.3333377 L2.3,15.3333377 C1.02974497,15.3333377 -2.47801779e-13,14.3035929 -2.47801779e-13,13.0333377 L-2.47801779e-13,6.90000439 C-2.47801779e-13,5.6297499 1.02974506,4.60000439 2.3,4.60000439 L5.11111099,4.60000439 Z M10.7333333,2.30000457 L5.82666659,5.98000453 C5.69395952,6.07953456 5.53255041,6.13333772 5.36666667,6.13333772 L2.3,6.13333772 C1.87658172,6.13333772 1.53333333,6.47658647 1.53333333,6.90000439 L1.53333333,13.0333377 C1.53333333,13.4567556 1.87658172,13.8000044 2.3,13.8000044 L5.36666667,13.8000044 C5.53255041,13.8000044 5.69395952,13.8538068 5.82666659,13.9533383 L10.7333333,17.6333377 L10.7333333,2.30000457 Z" id="Combined-Shape"></path>
            <g id="Group-6" transform="translate(14.000000, 4.466667)" fill-rule="nonzero">
                <path d="M0.613093935,9.6 C0.269761331,9.6 -1.04078252e-12,9.336 -1.04078252e-12,9 C-1.04078252e-12,8.664 0.269761331,8.4 0.613093935,8.4 C1.96190059,8.4 3.06546967,7.32 3.06546967,6 C3.06546967,4.68 1.96190059,3.6 0.613093935,3.6 C0.269761331,3.6 -1.04078252e-12,3.336 -1.04078252e-12,3 C-1.04078252e-12,2.664 0.269761331,2.4 0.613093935,2.4 C2.63630392,2.4 4.29165754,4.02 4.29165754,6 C4.29165754,7.992 2.63630392,9.6 0.613093935,9.6 Z" id="Path"></path>
                <path d="M1.86906065,12 C1.52572805,12 1.25596672,11.736 1.25596672,11.4 C1.25596672,11.064 1.52572805,10.8 1.86906065,10.8 C4.57893584,10.8 6.77381213,8.652 6.77381213,6 C6.77381213,3.348 4.57893584,1.2 1.86906065,1.2 C1.52572805,1.2 1.25596672,0.936 1.25596672,0.6 C1.25596672,0.264 1.52572805,1.98252628e-13 1.86906065,1.98252628e-13 C5.25333917,1.98252628e-13 8,2.688 8,6 C8,9.312 5.25333917,12 1.86906065,12 Z" id="Path"></path>
            </g>
        </g>
    </g>
</svg>